<svg width="34" height="34" viewBox="0 0 34 34" fill="none" xmlns="http://www.w3.org/2000/svg">
<path d="M22.0999 3.82498C19.07 2.64785 15.7273 2.54852 12.6328 3.54366C9.53827 4.5388 6.8801 6.56787 5.1042 9.29048C3.3283 12.0131 2.54272 15.2636 2.87924 18.4968C3.21577 21.7299 4.65392 24.749 6.95244 27.0475C9.25097 29.346 12.27 30.7842 15.5032 31.1207C18.7363 31.4572 21.9868 30.6716 24.7094 28.8957C27.4321 27.1198 29.4611 24.4616 30.4563 21.3671C31.4514 18.2726 31.3521 14.93 30.1749 11.9" stroke="#DEDEDE" stroke-width="2" stroke-linecap="round" stroke-linejoin="round"/>
<path d="M17 19.8334C18.5648 19.8334 19.8333 18.5648 19.8333 17C19.8333 15.4352 18.5648 14.1667 17 14.1667C15.4352 14.1667 14.1666 15.4352 14.1666 17C14.1666 18.5648 15.4352 19.8334 17 19.8334Z" stroke="#29E0A9" stroke-width="2" stroke-linecap="round" stroke-linejoin="round"/>
<path d="M18.9833 15.0166L26.9166 7.08331" stroke="#29E0A9" stroke-width="2" stroke-linecap="round" stroke-linejoin="round"/>
</svg>
