<svg width="40" height="40" viewBox="0 0 40 40" fill="none" xmlns="http://www.w3.org/2000/svg">
<path d="M20 13.3333C28.2843 13.3333 35 11.0947 35 8.33331C35 5.57189 28.2843 3.33331 20 3.33331C11.7157 3.33331 5 5.57189 5 8.33331C5 11.0947 11.7157 13.3333 20 13.3333Z" stroke="#DEDEDE" stroke-width="2" stroke-linecap="round" stroke-linejoin="round"/>
<path d="M4.99999 8.33331V31.6666C4.99071 32.4682 5.55966 33.2587 6.65888 33.9716C7.7581 34.6845 9.35537 35.2988 11.316 35.7629C13.2767 36.2269 15.5434 36.527 17.9248 36.6379C20.3063 36.7488 22.7329 36.6672 25 36.4" stroke="#DEDEDE" stroke-width="2" stroke-linecap="round" stroke-linejoin="round"/>
<path d="M35 8.33331V13.3333" stroke="#DEDEDE" stroke-width="2" stroke-linecap="round" stroke-linejoin="round"/>
<path d="M35 20L30 28.3333H36.6667L31.6667 36.6667" stroke="#29E0A9" stroke-width="2" stroke-linecap="round" stroke-linejoin="round"/>
<path d="M5 20C5.00241 20.7792 5.55114 21.5475 6.60243 22.2434C7.65371 22.9394 9.17843 23.5438 11.0549 24.0085C12.9315 24.4732 15.1078 24.7852 17.4104 24.9198C19.7129 25.0543 22.0779 25.0076 24.3167 24.7833" stroke="#DEDEDE" stroke-width="2" stroke-linecap="round" stroke-linejoin="round"/>
</svg>
