<svg width="41" height="41" viewBox="0 0 41 41" fill="none" xmlns="http://www.w3.org/2000/svg">
<path d="M27.3334 6.83331H30.75C31.6562 6.83331 32.5252 7.19328 33.166 7.83403C33.8067 8.47478 34.1667 9.34382 34.1667 10.25V34.1666C34.1667 35.0728 33.8067 35.9418 33.166 36.5826C32.5252 37.2233 31.6562 37.5833 30.75 37.5833H10.25C9.34388 37.5833 8.47484 37.2233 7.83409 36.5826C7.19334 35.9418 6.83337 35.0728 6.83337 34.1666V10.25C6.83337 9.34382 7.19334 8.47478 7.83409 7.83403C8.47484 7.19328 9.34388 6.83331 10.25 6.83331H13.6667" stroke="#DEDEDE" stroke-width="2" stroke-linecap="round" stroke-linejoin="round"/>
<path d="M20.5 18.7917H27.3333" stroke="#29E0A9" stroke-width="2" stroke-linecap="round" stroke-linejoin="round"/>
<path d="M20.5 27.3333H27.3333" stroke="#29E0A9" stroke-width="2" stroke-linecap="round" stroke-linejoin="round"/>
<path d="M13.6666 18.7917H13.6837" stroke="#29E0A9" stroke-width="2" stroke-linecap="round" stroke-linejoin="round"/>
<path d="M13.6666 27.3333H13.6837" stroke="#29E0A9" stroke-width="2" stroke-linecap="round" stroke-linejoin="round"/>
<path d="M25.625 3.41669H15.375C14.4315 3.41669 13.6666 4.18153 13.6666 5.12502V8.54169C13.6666 9.48517 14.4315 10.25 15.375 10.25H25.625C26.5684 10.25 27.3333 9.48517 27.3333 8.54169V5.12502C27.3333 4.18153 26.5684 3.41669 25.625 3.41669Z" stroke="#29E0A9" stroke-width="2" stroke-linecap="round" stroke-linejoin="round"/>
</svg>
